# Tiled2Unity generated file. Do not modify by hand.
# Wavefront file for 'Stage_tutorial_mesh_0001.obj'

# Vertices (Count = 632)
v -59 -6 0
v -60 -6 0
v -60 -5 0
v -59 -5 0
v -60 -6 0
v -61 -6 0
v -61 -5 0
v -60 -5 0
v -59 -7 0
v -60 -7 0
v -60 -6 0
v -59 -6 0
v -60 -7 0
v -61 -7 0
v -61 -6 0
v -60 -6 0
v -59 -8 0
v -60 -8 0
v -60 -7 0
v -59 -7 0
v -60 -8 0
v -61 -8 0
v -61 -7 0
v -60 -7 0
v -59 -9 0
v -60 -9 0
v -60 -8 0
v -59 -8 0
v -60 -9 0
v -61 -9 0
v -61 -8 0
v -60 -8 0
v -47 -10 0
v -48 -10 0
v -48 -9 0
v -47 -9 0
v -49 -10 0
v -50 -10 0
v -50 -9 0
v -49 -9 0
v -59 -10 0
v -60 -10 0
v -60 -9 0
v -59 -9 0
v -60 -10 0
v -61 -10 0
v -61 -9 0
v -60 -9 0
v -45 -11 0
v -46 -11 0
v -46 -10 0
v -45 -10 0
v -46 -11 0
v -47 -11 0
v -47 -10 0
v -46 -10 0
v -47 -11 0
v -48 -11 0
v -48 -10 0
v -47 -10 0
v -48 -11 0
v -49 -11 0
v -49 -10 0
v -48 -10 0
v -49 -11 0
v -50 -11 0
v -50 -10 0
v -49 -10 0
v -59 -11 0
v -60 -11 0
v -60 -10 0
v -59 -10 0
v -60 -11 0
v -61 -11 0
v -61 -10 0
v -60 -10 0
v -45 -12 0
v -46 -12 0
v -46 -11 0
v -45 -11 0
v -46 -12 0
v -47 -12 0
v -47 -11 0
v -46 -11 0
v -47 -12 0
v -48 -12 0
v -48 -11 0
v -47 -11 0
v -48 -12 0
v -49 -12 0
v -49 -11 0
v -48 -11 0
v -49 -12 0
v -50 -12 0
v -50 -11 0
v -49 -11 0
v -59 -12 0
v -60 -12 0
v -60 -11 0
v -59 -11 0
v -60 -12 0
v -61 -12 0
v -61 -11 0
v -60 -11 0
v -45 -13 0
v -46 -13 0
v -46 -12 0
v -45 -12 0
v -46 -13 0
v -47 -13 0
v -47 -12 0
v -46 -12 0
v -47 -13 0
v -48 -13 0
v -48 -12 0
v -47 -12 0
v -48 -13 0
v -49 -13 0
v -49 -12 0
v -48 -12 0
v -49 -13 0
v -50 -13 0
v -50 -12 0
v -49 -12 0
v -59 -13 0
v -60 -13 0
v -60 -12 0
v -59 -12 0
v -60 -13 0
v -61 -13 0
v -61 -12 0
v -60 -12 0
v -36 -14 0
v -37 -14 0
v -37 -13 0
v -36 -13 0
v -37 -14 0
v -38 -14 0
v -38 -13 0
v -37 -13 0
v -38 -14 0
v -39 -14 0
v -39 -13 0
v -38 -13 0
v -39 -14 0
v -40 -14 0
v -40 -13 0
v -39 -13 0
v -40 -14 0
v -41 -14 0
v -41 -13 0
v -40 -13 0
v -41 -14 0
v -42 -14 0
v -42 -13 0
v -41 -13 0
v -42 -14 0
v -43 -14 0
v -43 -13 0
v -42 -13 0
v -43 -14 0
v -44 -14 0
v -44 -13 0
v -43 -13 0
v -44 -14 0
v -45 -14 0
v -45 -13 0
v -44 -13 0
v -45 -14 0
v -46 -14 0
v -46 -13 0
v -45 -13 0
v -46 -14 0
v -47 -14 0
v -47 -13 0
v -46 -13 0
v -47 -14 0
v -48 -14 0
v -48 -13 0
v -47 -13 0
v -48 -14 0
v -49 -14 0
v -49 -13 0
v -48 -13 0
v -49 -14 0
v -50 -14 0
v -50 -13 0
v -49 -13 0
v -59 -14 0
v -60 -14 0
v -60 -13 0
v -59 -13 0
v -60 -14 0
v -61 -14 0
v -61 -13 0
v -60 -13 0
v -36 -15 0
v -37 -15 0
v -37 -14 0
v -36 -14 0
v -37 -15 0
v -38 -15 0
v -38 -14 0
v -37 -14 0
v -38 -15 0
v -39 -15 0
v -39 -14 0
v -38 -14 0
v -39 -15 0
v -40 -15 0
v -40 -14 0
v -39 -14 0
v -40 -15 0
v -41 -15 0
v -41 -14 0
v -40 -14 0
v -41 -15 0
v -42 -15 0
v -42 -14 0
v -41 -14 0
v -42 -15 0
v -43 -15 0
v -43 -14 0
v -42 -14 0
v -43 -15 0
v -44 -15 0
v -44 -14 0
v -43 -14 0
v -44 -15 0
v -45 -15 0
v -45 -14 0
v -44 -14 0
v -45 -15 0
v -46 -15 0
v -46 -14 0
v -45 -14 0
v -46 -15 0
v -47 -15 0
v -47 -14 0
v -46 -14 0
v -47 -15 0
v -48 -15 0
v -48 -14 0
v -47 -14 0
v -48 -15 0
v -49 -15 0
v -49 -14 0
v -48 -14 0
v -49 -15 0
v -50 -15 0
v -50 -14 0
v -49 -14 0
v -59 -15 0
v -60 -15 0
v -60 -14 0
v -59 -14 0
v -60 -15 0
v -61 -15 0
v -61 -14 0
v -60 -14 0
v -36 -16 0
v -37 -16 0
v -37 -15 0
v -36 -15 0
v -37 -16 0
v -38 -16 0
v -38 -15 0
v -37 -15 0
v -38 -16 0
v -39 -16 0
v -39 -15 0
v -38 -15 0
v -39 -16 0
v -40 -16 0
v -40 -15 0
v -39 -15 0
v -40 -16 0
v -41 -16 0
v -41 -15 0
v -40 -15 0
v -41 -16 0
v -42 -16 0
v -42 -15 0
v -41 -15 0
v -42 -16 0
v -43 -16 0
v -43 -15 0
v -42 -15 0
v -43 -16 0
v -44 -16 0
v -44 -15 0
v -43 -15 0
v -44 -16 0
v -45 -16 0
v -45 -15 0
v -44 -15 0
v -45 -16 0
v -46 -16 0
v -46 -15 0
v -45 -15 0
v -46 -16 0
v -47 -16 0
v -47 -15 0
v -46 -15 0
v -47 -16 0
v -48 -16 0
v -48 -15 0
v -47 -15 0
v -48 -16 0
v -49 -16 0
v -49 -15 0
v -48 -15 0
v -49 -16 0
v -50 -16 0
v -50 -15 0
v -49 -15 0
v -59 -16 0
v -60 -16 0
v -60 -15 0
v -59 -15 0
v -60 -16 0
v -61 -16 0
v -61 -15 0
v -60 -15 0
v -36 -17 0
v -37 -17 0
v -37 -16 0
v -36 -16 0
v -37 -17 0
v -38 -17 0
v -38 -16 0
v -37 -16 0
v -38 -17 0
v -39 -17 0
v -39 -16 0
v -38 -16 0
v -39 -17 0
v -40 -17 0
v -40 -16 0
v -39 -16 0
v -40 -17 0
v -41 -17 0
v -41 -16 0
v -40 -16 0
v -41 -17 0
v -42 -17 0
v -42 -16 0
v -41 -16 0
v -42 -17 0
v -43 -17 0
v -43 -16 0
v -42 -16 0
v -43 -17 0
v -44 -17 0
v -44 -16 0
v -43 -16 0
v -44 -17 0
v -45 -17 0
v -45 -16 0
v -44 -16 0
v -45 -17 0
v -46 -17 0
v -46 -16 0
v -45 -16 0
v -46 -17 0
v -47 -17 0
v -47 -16 0
v -46 -16 0
v -47 -17 0
v -48 -17 0
v -48 -16 0
v -47 -16 0
v -48 -17 0
v -49 -17 0
v -49 -16 0
v -48 -16 0
v -49 -17 0
v -50 -17 0
v -50 -16 0
v -49 -16 0
v -50 -17 0
v -51 -17 0
v -51 -16 0
v -50 -16 0
v -51 -17 0
v -52 -17 0
v -52 -16 0
v -51 -16 0
v -52 -17 0
v -53 -17 0
v -53 -16 0
v -52 -16 0
v -53 -17 0
v -54 -17 0
v -54 -16 0
v -53 -16 0
v -54 -17 0
v -55 -17 0
v -55 -16 0
v -54 -16 0
v -55 -17 0
v -56 -17 0
v -56 -16 0
v -55 -16 0
v -56 -17 0
v -57 -17 0
v -57 -16 0
v -56 -16 0
v -57 -17 0
v -58 -17 0
v -58 -16 0
v -57 -16 0
v -58 -17 0
v -59 -17 0
v -59 -16 0
v -58 -16 0
v -59 -17 0
v -60 -17 0
v -60 -16 0
v -59 -16 0
v -60 -17 0
v -61 -17 0
v -61 -16 0
v -60 -16 0
v -61 -17 0
v -62 -17 0
v -62 -16 0
v -61 -16 0
v -45 -18 0
v -46 -18 0
v -46 -17 0
v -45 -17 0
v -46 -18 0
v -47 -18 0
v -47 -17 0
v -46 -17 0
v -47 -18 0
v -48 -18 0
v -48 -17 0
v -47 -17 0
v -48 -18 0
v -49 -18 0
v -49 -17 0
v -48 -17 0
v -49 -18 0
v -50 -18 0
v -50 -17 0
v -49 -17 0
v -50 -18 0
v -51 -18 0
v -51 -17 0
v -50 -17 0
v -51 -18 0
v -52 -18 0
v -52 -17 0
v -51 -17 0
v -52 -18 0
v -53 -18 0
v -53 -17 0
v -52 -17 0
v -53 -18 0
v -54 -18 0
v -54 -17 0
v -53 -17 0
v -54 -18 0
v -55 -18 0
v -55 -17 0
v -54 -17 0
v -55 -18 0
v -56 -18 0
v -56 -17 0
v -55 -17 0
v -56 -18 0
v -57 -18 0
v -57 -17 0
v -56 -17 0
v -57 -18 0
v -58 -18 0
v -58 -17 0
v -57 -17 0
v -58 -18 0
v -59 -18 0
v -59 -17 0
v -58 -17 0
v -59 -18 0
v -60 -18 0
v -60 -17 0
v -59 -17 0
v -60 -18 0
v -61 -18 0
v -61 -17 0
v -60 -17 0
v -61 -18 0
v -62 -18 0
v -62 -17 0
v -61 -17 0
v -45 -19 0
v -46 -19 0
v -46 -18 0
v -45 -18 0
v -46 -19 0
v -47 -19 0
v -47 -18 0
v -46 -18 0
v -47 -19 0
v -48 -19 0
v -48 -18 0
v -47 -18 0
v -48 -19 0
v -49 -19 0
v -49 -18 0
v -48 -18 0
v -49 -19 0
v -50 -19 0
v -50 -18 0
v -49 -18 0
v -50 -19 0
v -51 -19 0
v -51 -18 0
v -50 -18 0
v -51 -19 0
v -52 -19 0
v -52 -18 0
v -51 -18 0
v -52 -19 0
v -53 -19 0
v -53 -18 0
v -52 -18 0
v -53 -19 0
v -54 -19 0
v -54 -18 0
v -53 -18 0
v -54 -19 0
v -55 -19 0
v -55 -18 0
v -54 -18 0
v -55 -19 0
v -56 -19 0
v -56 -18 0
v -55 -18 0
v -56 -19 0
v -57 -19 0
v -57 -18 0
v -56 -18 0
v -57 -19 0
v -58 -19 0
v -58 -18 0
v -57 -18 0
v -58 -19 0
v -59 -19 0
v -59 -18 0
v -58 -18 0
v -59 -19 0
v -60 -19 0
v -60 -18 0
v -59 -18 0
v -60 -19 0
v -61 -19 0
v -61 -18 0
v -60 -18 0
v -61 -19 0
v -62 -19 0
v -62 -18 0
v -61 -18 0
v -45 -20 0
v -46 -20 0
v -46 -19 0
v -45 -19 0
v -46 -20 0
v -47 -20 0
v -47 -19 0
v -46 -19 0
v -47 -20 0
v -48 -20 0
v -48 -19 0
v -47 -19 0
v -48 -20 0
v -49 -20 0
v -49 -19 0
v -48 -19 0
v -49 -20 0
v -50 -20 0
v -50 -19 0
v -49 -19 0
v -50 -20 0
v -51 -20 0
v -51 -19 0
v -50 -19 0
v -51 -20 0
v -52 -20 0
v -52 -19 0
v -51 -19 0
v -52 -20 0
v -53 -20 0
v -53 -19 0
v -52 -19 0
v -53 -20 0
v -54 -20 0
v -54 -19 0
v -53 -19 0
v -54 -20 0
v -55 -20 0
v -55 -19 0
v -54 -19 0
v -55 -20 0
v -56 -20 0
v -56 -19 0
v -55 -19 0
v -56 -20 0
v -57 -20 0
v -57 -19 0
v -56 -19 0
v -57 -20 0
v -58 -20 0
v -58 -19 0
v -57 -19 0
v -58 -20 0
v -59 -20 0
v -59 -19 0
v -58 -19 0
v -59 -20 0
v -60 -20 0
v -60 -19 0
v -59 -19 0
v -60 -20 0
v -61 -20 0
v -61 -19 0
v -60 -19 0
v -61 -20 0
v -62 -20 0
v -62 -19 0
v -61 -19 0

# Texture cooridinates (Count = 91)
vt 0.84 0.1739131
vt 0.88 0.1739131
vt 0.88 0.2173913
vt 0.84 0.2173913
vt 0.36 0.3913044
vt 0.4 0.3913044
vt 0.4 0.4347826
vt 0.36 0.4347826
vt 0.44 0.3913044
vt 0.48 0.3913044
vt 0.48 0.4347826
vt 0.44 0.4347826
vt 0.76 0.2608696
vt 0.8 0.2608696
vt 0.8 0.3043478
vt 0.76 0.3043478
vt 0.36 0.3478261
vt 0.4 0.3478261
vt 0.44 0.3478261
vt 0.48 0.3478261
vt 0.36 0.3043478
vt 0.4 0.3043478
vt 0.68 0.0869565
vt 0.72 0.0869565
vt 0.72 0.1304348
vt 0.68 0.1304348
vt 0.76 0.1739131
vt 0.8 0.1739131
vt 0.8 0.2173913
vt 0.76 0.2173913
vt 0.08 0.2608696
vt 0.12 0.2608696
vt 0.12 0.3043478
vt 0.08 0.3043478
vt 0.08 0.1739131
vt 0.12 0.1739131
vt 0.12 0.2173913
vt 0.08 0.2173913
vt 0.28 0.3478261
vt 0.32 0.3478261
vt 0.32 0.3913044
vt 0.28 0.3913044
vt 0.68 0.2608696
vt 0.72 0.2608696
vt 0.72 0.3043478
vt 0.68 0.3043478
vt 0.36 0.0869565
vt 0.4 0.0869565
vt 0.4 0.1304348
vt 0.36 0.1304348
vt 0.44 0.0869565
vt 0.44 0.1304348
vt 0.48 0.0869565
vt 0.48 0.1304348
vt 0.44 0.2173913
vt 0.48 0.2173913
vt 0.48 0.2608696
vt 0.44 0.2608696
vt 0.36 0.04347825
vt 0.4 0.04347825
vt 0.44 0.04347825
vt 0.48 0.04347825
vt 0.44 0.1739131
vt 0.48 0.1739131
vt 0.56 0.2608696
vt 0.6 0.2608696
vt 0.6 0.3043478
vt 0.56 0.3043478
vt 0.64 0.2608696
vt 0.64 0.3043478
vt 0.56 0.2173913
vt 0.6 0.2173913
vt 0.64 0.2173913
vt 0.52 0.0869565
vt 0.56 0.0869565
vt 0.56 0.1304348
vt 0.52 0.1304348
vt 0.6 0.0869565
vt 0.6 0.1304348
vt 0.52 0.1739131
vt 0.52 0.2173913
vt 0.56 0.1739131
vt 0.6 0.1739131
vt 0.64 0.1739131
vt 0.68 0.1739131
vt 0.72 0.1739131
vt 0.72 0.2173913
vt 0.68 0.2173913
vt 0.52 0.04347825
vt 0.56 0.04347825
vt 0.6 0.04347825

# Normal
vn 0 0 -1

# Mesh description
g Stage_tutorial_mesh_0001

# Faces
f 1/1/1 2/2/1 3/3/1 4/4/1
f 5/1/1 6/2/1 7/3/1 8/4/1
f 9/1/1 10/2/1 11/3/1 12/4/1
f 13/1/1 14/2/1 15/3/1 16/4/1
f 17/1/1 18/2/1 19/3/1 20/4/1
f 21/1/1 22/2/1 23/3/1 24/4/1
f 25/1/1 26/2/1 27/3/1 28/4/1
f 29/1/1 30/2/1 31/3/1 32/4/1
f 33/5/1 34/6/1 35/7/1 36/8/1
f 37/9/1 38/10/1 39/11/1 40/12/1
f 41/1/1 42/2/1 43/3/1 44/4/1
f 45/1/1 46/2/1 47/3/1 48/4/1
f 49/13/1 50/14/1 51/15/1 52/16/1
f 53/1/1 54/2/1 55/3/1 56/4/1
f 57/17/1 58/18/1 59/6/1 60/5/1
f 61/1/1 62/2/1 63/3/1 64/4/1
f 65/19/1 66/20/1 67/10/1 68/9/1
f 69/1/1 70/2/1 71/3/1 72/4/1
f 73/1/1 74/2/1 75/3/1 76/4/1
f 77/13/1 78/14/1 79/15/1 80/16/1
f 81/1/1 82/2/1 83/3/1 84/4/1
f 85/21/1 86/22/1 87/18/1 88/17/1
f 89/1/1 90/2/1 91/3/1 92/4/1
f 93/23/1 94/24/1 95/25/1 96/26/1
f 97/1/1 98/2/1 99/3/1 100/4/1
f 101/1/1 102/2/1 103/3/1 104/4/1
f 105/13/1 106/14/1 107/15/1 108/16/1
f 109/1/1 110/2/1 111/3/1 112/4/1
f 113/1/1 114/2/1 115/3/1 116/4/1
f 117/1/1 118/2/1 119/3/1 120/4/1
f 121/27/1 122/28/1 123/29/1 124/30/1
f 125/1/1 126/2/1 127/3/1 128/4/1
f 129/1/1 130/2/1 131/3/1 132/4/1
f 133/31/1 134/32/1 135/33/1 136/34/1
f 137/35/1 138/36/1 139/37/1 140/38/1
f 141/23/1 142/24/1 143/25/1 144/26/1
f 145/27/1 146/28/1 147/29/1 148/30/1
f 149/1/1 150/2/1 151/3/1 152/4/1
f 153/1/1 154/2/1 155/3/1 156/4/1
f 157/39/1 158/40/1 159/41/1 160/42/1
f 161/43/1 162/44/1 163/45/1 164/46/1
f 165/44/1 166/13/1 167/16/1 168/45/1
f 169/13/1 170/14/1 171/15/1 172/16/1
f 173/1/1 174/2/1 175/3/1 176/4/1
f 177/1/1 178/2/1 179/3/1 180/4/1
f 181/1/1 182/2/1 183/3/1 184/4/1
f 185/1/1 186/2/1 187/3/1 188/4/1
f 189/1/1 190/2/1 191/3/1 192/4/1
f 193/1/1 194/2/1 195/3/1 196/4/1
f 197/31/1 198/32/1 199/33/1 200/34/1
f 201/35/1 202/36/1 203/37/1 204/38/1
f 205/27/1 206/28/1 207/29/1 208/30/1
f 209/27/1 210/28/1 211/29/1 212/30/1
f 213/1/1 214/2/1 215/3/1 216/4/1
f 217/1/1 218/2/1 219/3/1 220/4/1
f 221/1/1 222/2/1 223/3/1 224/4/1
f 225/43/1 226/44/1 227/45/1 228/46/1
f 229/44/1 230/13/1 231/16/1 232/45/1
f 233/13/1 234/14/1 235/15/1 236/16/1
f 237/1/1 238/2/1 239/3/1 240/4/1
f 241/1/1 242/2/1 243/3/1 244/4/1
f 245/1/1 246/2/1 247/3/1 248/4/1
f 249/1/1 250/2/1 251/3/1 252/4/1
f 253/1/1 254/2/1 255/3/1 256/4/1
f 257/1/1 258/2/1 259/3/1 260/4/1
f 261/31/1 262/32/1 263/33/1 264/34/1
f 265/35/1 266/36/1 267/37/1 268/38/1
f 269/35/1 270/36/1 271/37/1 272/38/1
f 273/27/1 274/28/1 275/29/1 276/30/1
f 277/1/1 278/2/1 279/3/1 280/4/1
f 281/1/1 282/2/1 283/3/1 284/4/1
f 285/47/1 286/48/1 287/49/1 288/50/1
f 289/48/1 290/51/1 291/52/1 292/49/1
f 293/51/1 294/53/1 295/54/1 296/52/1
f 297/55/1 298/56/1 299/57/1 300/58/1
f 301/1/1 302/2/1 303/3/1 304/4/1
f 305/1/1 306/2/1 307/3/1 308/4/1
f 309/1/1 310/2/1 311/3/1 312/4/1
f 313/1/1 314/2/1 315/3/1 316/4/1
f 317/1/1 318/2/1 319/3/1 320/4/1
f 321/1/1 322/2/1 323/3/1 324/4/1
f 325/31/1 326/32/1 327/33/1 328/34/1
f 329/35/1 330/36/1 331/37/1 332/38/1
f 333/35/1 334/36/1 335/37/1 336/38/1
f 337/27/1 338/28/1 339/29/1 340/30/1
f 341/1/1 342/2/1 343/3/1 344/4/1
f 345/1/1 346/2/1 347/3/1 348/4/1
f 349/59/1 350/60/1 351/48/1 352/47/1
f 353/60/1 354/61/1 355/51/1 356/48/1
f 357/61/1 358/62/1 359/53/1 360/51/1
f 361/63/1 362/64/1 363/56/1 364/55/1
f 365/1/1 366/2/1 367/3/1 368/4/1
f 369/1/1 370/2/1 371/3/1 372/4/1
f 373/1/1 374/2/1 375/3/1 376/4/1
f 377/1/1 378/2/1 379/3/1 380/4/1
f 381/1/1 382/2/1 383/3/1 384/4/1
f 385/1/1 386/2/1 387/3/1 388/4/1
f 389/1/1 390/2/1 391/3/1 392/4/1
f 393/1/1 394/2/1 395/3/1 396/4/1
f 397/1/1 398/2/1 399/3/1 400/4/1
f 401/1/1 402/2/1 403/3/1 404/4/1
f 405/1/1 406/2/1 407/3/1 408/4/1
f 409/1/1 410/2/1 411/3/1 412/4/1
f 413/1/1 414/2/1 415/3/1 416/4/1
f 417/1/1 418/2/1 419/3/1 420/4/1
f 421/1/1 422/2/1 423/3/1 424/4/1
f 425/1/1 426/2/1 427/3/1 428/4/1
f 429/55/1 430/56/1 431/57/1 432/58/1
f 433/1/1 434/2/1 435/3/1 436/4/1
f 437/1/1 438/2/1 439/3/1 440/4/1
f 441/65/1 442/66/1 443/67/1 444/68/1
f 445/66/1 446/69/1 447/70/1 448/67/1
f 449/1/1 450/2/1 451/3/1 452/4/1
f 453/1/1 454/2/1 455/3/1 456/4/1
f 457/1/1 458/2/1 459/3/1 460/4/1
f 461/1/1 462/2/1 463/3/1 464/4/1
f 465/1/1 466/2/1 467/3/1 468/4/1
f 469/1/1 470/2/1 471/3/1 472/4/1
f 473/1/1 474/2/1 475/3/1 476/4/1
f 477/1/1 478/2/1 479/3/1 480/4/1
f 481/1/1 482/2/1 483/3/1 484/4/1
f 485/1/1 486/2/1 487/3/1 488/4/1
f 489/1/1 490/2/1 491/3/1 492/4/1
f 493/1/1 494/2/1 495/3/1 496/4/1
f 497/55/1 498/56/1 499/57/1 500/58/1
f 501/1/1 502/2/1 503/3/1 504/4/1
f 505/1/1 506/2/1 507/3/1 508/4/1
f 509/71/1 510/72/1 511/66/1 512/65/1
f 513/72/1 514/73/1 515/69/1 516/66/1
f 517/1/1 518/2/1 519/3/1 520/4/1
f 521/1/1 522/2/1 523/3/1 524/4/1
f 525/1/1 526/2/1 527/3/1 528/4/1
f 529/47/1 530/48/1 531/49/1 532/50/1
f 533/48/1 534/51/1 535/52/1 536/49/1
f 537/51/1 538/53/1 539/54/1 540/52/1
f 541/74/1 542/75/1 543/76/1 544/77/1
f 545/75/1 546/78/1 547/79/1 548/76/1
f 549/1/1 550/2/1 551/3/1 552/4/1
f 553/1/1 554/2/1 555/3/1 556/4/1
f 557/1/1 558/2/1 559/3/1 560/4/1
f 561/1/1 562/2/1 563/3/1 564/4/1
f 565/63/1 566/64/1 567/56/1 568/55/1
f 569/64/1 570/80/1 571/81/1 572/56/1
f 573/1/1 574/2/1 575/3/1 576/4/1
f 577/82/1 578/83/1 579/72/1 580/71/1
f 581/83/1 582/84/1 583/73/1 584/72/1
f 585/1/1 586/2/1 587/3/1 588/4/1
f 589/1/1 590/2/1 591/3/1 592/4/1
f 593/85/1 594/86/1 595/87/1 596/88/1
f 597/59/1 598/60/1 599/48/1 600/47/1
f 601/60/1 602/61/1 603/51/1 604/48/1
f 605/61/1 606/62/1 607/53/1 608/51/1
f 609/89/1 610/90/1 611/75/1 612/74/1
f 613/90/1 614/91/1 615/78/1 616/75/1
f 617/1/1 618/2/1 619/3/1 620/4/1
f 621/1/1 622/2/1 623/3/1 624/4/1
f 625/1/1 626/2/1 627/3/1 628/4/1
f 629/1/1 630/2/1 631/3/1 632/4/1

